# xmcd
#
# Track frame offsets:
# 150
# 21687
# 36483
# 49487
# 63953
# 84171
# 97334
# 113890
# 129582
# 149503
# 167791
#
# Disc length: 2474 seconds
#
#
# Revision: 0
# Processed by: cddbd v1.5PL3 Copyright (c) Steve Scherf et al.
# Submitted via: FreeRIP 2.70 
#
DISCID=a709a80b
DTITLE=Johnny Duncan - He's Everywhere
DYEAR=1900
DGENRE=
TTITLE0=Fireman's Oath
TTITLE1=Please Hold The Line
TTITLE2=He's Everywhere
TTITLE3=Glory Rail
TTITLE4=Graduation Day
TTITLE5=I Can Feel My Mountains Move
TTITLE6=He Knows, He Cares, He Does
TTITLE7=Take It To Jesus
TTITLE8=Make Up Your Mind
TTITLE9=Just Any Rose
TTITLE10=Mama's Prayer
EXTD=
EXTT0=
EXTT1=
EXTT2=
EXTT3=
EXTT4=
EXTT5=
EXTT6=
EXTT7=
EXTT8=
EXTT9=
EXTT10=
PLAYORDER=
